<?xml version="1.0" encoding="UTF-8"?>
<svg width="141px" height="73px" viewBox="0 0 141 73" version="1.1" xmlns="http://www.w3.org/2000/svg" xmlns:xlink="http://www.w3.org/1999/xlink">
    <!-- Generator: Sketch 48.2 (47327) - http://www.bohemiancoding.com/sketch -->
    <title>Create Icon</title>
    <desc>Created with Sketch.</desc>
    <defs></defs>
    <g id="Light-Dashboard-Main-Dashboard" stroke="none" stroke-width="1" fill="none" fill-rule="evenodd" transform="translate(-459.000000, -1264.000000)">
        <g id="Group" transform="translate(96.000000, 621.000000)">
            <g id="Join/Create-Group" transform="translate(304.000000, 632.000000)">
                <g id="Create-Icon" transform="translate(62.000000, 13.000000)">
                    <path d="M35,58 C35.7536762,43.4585812 47.7776256,31.9 62.5,31.9 C77.2223744,31.9 89.2463238,43.4585812 90,58 L35,58 Z M62.5,31.9 C53.6950595,31.9 46.557245,24.7589418 46.557245,15.95 C46.557245,7.14105824 53.6950595,0 62.5,0 C71.3049405,0 78.442755,7.14105824 78.442755,15.95 C78.442755,24.7589418 71.3049405,31.9 62.5,31.9 Z" id="Combined-Shape-Copy-8" stroke="#000000" stroke-width="4" fill="#FFFFFF"></path>
                    <path d="M-4.47940296e-14,65 C0.753676237,50.4585812 12.7776256,38.9 27.5,38.9 C42.2223744,38.9 54.2463238,50.4585812 55,65 L-4.52415883e-14,65 Z M27.5,38.9 C18.6950595,38.9 11.557245,31.7589418 11.557245,22.95 C11.557245,14.1410582 18.6950595,7 27.5,7 C36.3049405,7 43.442755,14.1410582 43.442755,22.95 C43.442755,31.7589418 36.3049405,38.9 27.5,38.9 Z" id="Combined-Shape-Copy-7" stroke="#000000" stroke-width="4" fill="#FFFFFF"></path>
                    <path d="M69,65 C69.7536762,50.4585812 81.7776256,38.9 96.5,38.9 C111.222374,38.9 123.246324,50.4585812 124,65 L69,65 Z M96.5,38.9 C87.6950595,38.9 80.557245,31.7589418 80.557245,22.95 C80.557245,14.1410582 87.6950595,7 96.5,7 C105.30494,7 112.442755,14.1410582 112.442755,22.95 C112.442755,31.7589418 105.30494,38.9 96.5,38.9 Z" id="Combined-Shape-Copy-9" stroke="#000000" stroke-width="4" fill="#FFFFFF"></path>
                    <g id="Group-12" transform="translate(109.000000, 42.000000)">
                        <circle id="Oval-3" fill="#000000" cx="14.5" cy="14.5" r="14.5"></circle>
                        <g id="Group-13" transform="translate(8.000000, 8.000000)" fill="#D8D8D8" stroke="#FFFFFF" stroke-linecap="square" stroke-width="3">
                            <path d="M6.5,0.25 L6.5,13.75" id="Line"></path>
                            <path d="M12.7592593,7 L0.240740741,7" id="Line-Copy"></path>
                        </g>
                    </g>
                </g>
            </g>
        </g>
    </g>
</svg>