<?xml version="1.0" encoding="UTF-8"?>
<svg width="28px" height="44px" viewBox="0 0 28 44" version="1.1" xmlns="http://www.w3.org/2000/svg" xmlns:xlink="http://www.w3.org/1999/xlink">
    <!-- Generator: Sketch 49 (51002) - http://www.bohemiancoding.com/sketch -->
    <title>Group 10</title>
    <desc>Created with Sketch.</desc>
    <defs></defs>
    <g id="Light-Dashboard-Designs" stroke="none" stroke-width="1" fill="none" fill-rule="evenodd">
        <g id="Light-Dashboard-Profile" transform="translate(-707.000000, -803.000000)" fill="#FFFFFF">
            <g id="Info-Card" transform="translate(503.000000, 733.000000)">
                <g id="Group-9" transform="translate(171.000000, 48.000000)">
                    <g id="Profile-Image-Status-Copy">
                        <g id="Group-10" transform="translate(29.000000, 20.000000)">
                            <path d="M20.2661287,0.502019801 L20.2661287,0.502019801 C23.3210672,0.502019801 25.7975842,2.97853675 25.7975842,6.03347523 L25.7975842,35.2711682 L14.7346733,35.2711682 L14.7346733,6.03347523 C14.7346733,2.97853675 17.2111903,0.502019801 20.2661287,0.502019801 Z" id="Rectangle-3" transform="translate(20.266129, 17.886594) rotate(29.000000) translate(-20.266129, -17.886594) "></path>
                            <path d="M8.67086421,36.6073423 L13.276437,45.8184879 L2.27643702,45.8184879 L6.88200983,36.6073423 C7.12899908,36.1133638 7.72967212,35.9131395 8.22365062,36.1601287 C8.41717802,36.2568924 8.57410051,36.4138149 8.67086421,36.6073423 Z" id="Triangle" transform="translate(7.776437, 40.936412) rotate(209.000000) translate(-7.776437, -40.936412) "></path>
                        </g>
                    </g>
                </g>
            </g>
        </g>
    </g>
</svg>