<?xml version="1.0" encoding="UTF-8"?>
<svg width="67px" height="32px" viewBox="0 0 67 32" version="1.1" xmlns="http://www.w3.org/2000/svg" xmlns:xlink="http://www.w3.org/1999/xlink">
    <!-- Generator: Sketch 49 (51002) - http://www.bohemiancoding.com/sketch -->
    <title>Group 6</title>
    <desc>Created with Sketch.</desc>
    <defs>
        <path d="M30,-17 C36.0751322,-17 41,-4.01625774 41,12 C41,28.0162577 36.0751322,41 30,41 L18,41 L18,-17 L30,-17 Z" id="path-1"></path>
        <filter x="-30.4%" y="-8.6%" width="160.9%" height="124.1%" filterUnits="objectBoundingBox" id="filter-2">
            <feOffset dx="0" dy="2" in="SourceAlpha" result="shadowOffsetOuter1"></feOffset>
            <feGaussianBlur stdDeviation="2" in="shadowOffsetOuter1" result="shadowBlurOuter1"></feGaussianBlur>
            <feColorMatrix values="0 0 0 0 0   0 0 0 0 0   0 0 0 0 0  0 0 0 0.5 0" type="matrix" in="shadowBlurOuter1"></feColorMatrix>
        </filter>
    </defs>
    <g id="Light-Dashboard-Designs" stroke="none" stroke-width="1" fill="none" fill-rule="evenodd">
        <g id="Light-Dashboard-Desktop-Expanded-Info-Bar" transform="translate(-681.000000, -939.000000)">
            <g id="Create-Nav" transform="translate(330.000000, 943.000000)">
                <g id="Group-6" transform="translate(353.000000, 0.000000)">
                    <g id="Combined-Shape" transform="translate(29.500000, 12.000000) rotate(270.000000) translate(-29.500000, -12.000000) ">
                        <use fill="black" fill-opacity="1" filter="url(#filter-2)" xlink:href="#path-1"></use>
                        <use fill="#255250" fill-rule="evenodd" xlink:href="#path-1"></use>
                    </g>
                    <path d="M28.7654831,9.43477258 L29.1525737,9 L29.1932182,9.0377282 L29.2338627,9 L29.6209533,9.43477258 L36.2461286,15.5845803 L36.6932182,15.9995904 L35.880328,16.9126129 L35.4332383,16.4976027 L29.1932182,10.7053146 L22.9531981,16.4976027 L22.5061085,16.9126129 L21.6932182,15.9995904 L22.1403078,15.5845803 L28.7654831,9.43477258 Z" id="Combined-Shape" stroke="#FFFFFF" fill="#FFFFFF" stroke-linecap="square"></path>
                </g>
            </g>
        </g>
    </g>
</svg>