<?xml version="1.0" encoding="UTF-8"?>
<svg width="215px" height="69px" viewBox="0 0 215 69" version="1.1" xmlns="http://www.w3.org/2000/svg" xmlns:xlink="http://www.w3.org/1999/xlink">
    <!-- Generator: Sketch 48.2 (47327) - http://www.bohemiancoding.com/sketch -->
    <title>Join Icon</title>
    <desc>Created with Sketch.</desc>
    <defs></defs>
    <g id="Light-Dashboard-Main-Dashboard" stroke="none" stroke-width="1" fill="none" fill-rule="evenodd" transform="translate(-810.000000, -1267.000000)">
        <g id="Group" transform="translate(96.000000, 621.000000)" stroke="#000000">
            <g id="Join/Create-Group" transform="translate(304.000000, 632.000000)">
                <g id="Join-Icon" transform="translate(413.000000, 16.000000)">
                    <path d="M118,58 C118.753676,43.4585812 130.777626,31.9 145.5,31.9 C160.222374,31.9 172.246324,43.4585812 173,58 L118,58 Z M145.5,31.9 C136.69506,31.9 129.557245,24.7589418 129.557245,15.95 C129.557245,7.14105824 136.69506,0 145.5,0 C154.30494,0 161.442755,7.14105824 161.442755,15.95 C161.442755,24.7589418 154.30494,31.9 145.5,31.9 Z" id="Combined-Shape-Copy-8" stroke-width="4" fill="#FFFFFF"></path>
                    <path d="M83,65 C83.7536762,50.4585812 95.7776256,38.9 110.5,38.9 C125.222374,38.9 137.246324,50.4585812 138,65 L83,65 Z M110.5,38.9 C101.69506,38.9 94.557245,31.7589418 94.557245,22.95 C94.557245,14.1410582 101.69506,7 110.5,7 C119.30494,7 126.442755,14.1410582 126.442755,22.95 C126.442755,31.7589418 119.30494,38.9 110.5,38.9 Z" id="Combined-Shape-Copy-7" stroke-width="4" fill="#FFFFFF"></path>
                    <path d="M-4.47940296e-14,65 C0.753676237,50.4585812 12.7776256,38.9 27.5,38.9 C42.2223744,38.9 54.2463238,50.4585812 55,65 L-4.52415883e-14,65 Z M27.5,38.9 C18.6950595,38.9 11.557245,31.7589418 11.557245,22.95 C11.557245,14.1410582 18.6950595,7 27.5,7 C36.3049405,7 43.442755,14.1410582 43.442755,22.95 C43.442755,31.7589418 36.3049405,38.9 27.5,38.9 Z" id="Combined-Shape-Copy-10" stroke-width="4" fill="#FFFFFF"></path>
                    <path d="M154,65 C154.753676,50.4585812 166.777626,38.9 181.5,38.9 C196.222374,38.9 208.246324,50.4585812 209,65 L154,65 Z M181.5,38.9 C172.69506,38.9 165.557245,31.7589418 165.557245,22.95 C165.557245,14.1410582 172.69506,7 181.5,7 C190.30494,7 197.442755,14.1410582 197.442755,22.95 C197.442755,31.7589418 190.30494,38.9 181.5,38.9 Z" id="Combined-Shape-Copy-9" stroke-width="4" fill="#FFFFFF"></path>
                    <g id="Arrow" transform="translate(55.000000, 30.000000)" stroke-linecap="square" stroke-width="3">
                        <path d="M0.5,6.5 L26.5,6.5" id="Line-4"></path>
                        <path d="M21.5,0.5 L27.5,6.5" id="Line-5"></path>
                        <path d="M27.5,6.5 L22.5,12.5" id="Line-6"></path>
                    </g>
                </g>
            </g>
        </g>
    </g>
</svg>