<svg xmlns="http://www.w3.org/2000/svg" viewBox="0 0 199.67 142.79"><defs><style>.cls-1,.cls-2,.cls-5,.cls-6{fill:none;}.cls-1,.cls-2,.cls-3,.cls-5,.cls-6{stroke:#fff;}.cls-1,.cls-6{stroke-linejoin:round;}.cls-1,.cls-2,.cls-6{stroke-width:5px;}.cls-2,.cls-3,.cls-5{stroke-miterlimit:10;}.cls-3,.cls-4{fill:#fff;}.cls-3{stroke-width:0;}.cls-5{stroke-width:10px;}.cls-6{stroke-linecap:round;}</style></defs><title>Asset 1</title><g id="Layer_2" data-name="Layer 2"><g id="Layer_1-2" data-name="Layer 1"><polyline class="cls-1" points="194.86 98.69 194.82 132.01 2.5 132.01 2.5 106.49"/><path class="cls-2" d="M98.09,132c-36.89-27.52-65.44-11.13-95.3,0"/><line class="cls-2" x1="186.3" y1="24.65" x2="186.4" y2="128.38"/><path class="cls-2" d="M194.64,132c-29.86-11.13-59.38-27.52-96.26,0"/><line class="cls-2" x1="194.91" y1="59.4" x2="194.88" y2="77.54"/><path class="cls-3" d="M188.92,38.26h7.15a3.6,3.6,0,0,1,3.6,3.6V55.8a3.6,3.6,0,0,1-3.6,3.6h-7.15"/><path class="cls-3" d="M188.92,77.54h7.15a3.6,3.6,0,0,1,3.6,3.6v14a3.6,3.6,0,0,1-3.6,3.6h-7.15"/><path class="cls-4" d="M80.69,71.06,65.87,96.69a7,7,0,0,1-12.17-7,8.27,8.27,0,0,1,.71-1L73.48,66a4.42,4.42,0,0,1,7.21,5.06Z"/><line class="cls-1" x1="2.5" y1="61.38" x2="2.5" y2="117.22"/><path class="cls-4" d="M197.43,28.39l0,9.87h-5l0-8.14c-2.49-.94-5-1.92-7.43-2.87C158.34,16.84,133.11,7,102.19,28.57c-.83.58-1.67,1.18-2.51,1.81a2.54,2.54,0,0,1-3,0c-.84-.62-1.67-1.22-2.5-1.8C63.53,7.16,39,16.82,13,27c-2.61,1-5.29,2.08-8,3.09V72.32H0V28.38A2.5,2.5,0,0,1,1.63,26C4.8,24.86,8,23.59,11.14,22.37c25.33-10,51.48-20.22,83.05.2q2,1.28,4,2.72c1.35-1,2.68-1.88,4-2.73C134,2,160.84,12.45,186.82,22.58c3,1.16,6,2.35,9,3.46A2.48,2.48,0,0,1,197.43,28.39Z"/><path class="cls-4" d="M102.15,142.3V22.56c-1.33.86-2.66,1.76-4,2.74q-2-1.44-4-2.73V142.3a.48.48,0,0,0,.83.34l3.17-3.17,3.17,3.17A.48.48,0,0,0,102.15,142.3Z"/><circle class="cls-5" cx="97.67" cy="39.39" r="34.39"/><path class="cls-6" d="M97.67,62.12a22.71,22.71,0,0,0,18.15-9"/><path class="cls-6" d="M119.63,45.28a22.86,22.86,0,0,0,.77-5.89"/></g></g></svg>