<?xml version="1.0" encoding="UTF-8"?>
<svg width="130px" height="97px" viewBox="0 0 130 97" version="1.1" xmlns="http://www.w3.org/2000/svg" xmlns:xlink="http://www.w3.org/1999/xlink">
    <!-- Generator: Sketch 48.2 (47327) - http://www.bohemiancoding.com/sketch -->
    <title>Dashboard Icon</title>
    <desc>Created with Sketch.</desc>
    <defs>
        <rect id="path-1" x="0" y="0" width="130" height="97"></rect>
        <rect id="path-2" x="0" y="0" width="55" height="2"></rect>
        <rect id="path-3" x="0" y="4" width="40" height="2"></rect>
        <rect id="path-4" x="0" y="8" width="33" height="2"></rect>
        <rect id="path-5" x="0" y="0" width="17" height="2"></rect>
        <rect id="path-6" x="3" y="4" width="12" height="2"></rect>
        <rect id="path-7" x="4" y="8" width="10" height="2"></rect>
        <rect id="path-8" x="0" y="0" width="55" height="2"></rect>
        <rect id="path-9" x="0" y="4" width="40" height="2"></rect>
        <rect id="path-10" x="0" y="8" width="33" height="2"></rect>
        <rect id="path-11" x="0" y="0" width="55" height="2"></rect>
        <rect id="path-12" x="0" y="4" width="40" height="2"></rect>
        <rect id="path-13" x="0" y="8" width="33" height="2"></rect>
    </defs>
    <g id="Mobile-Home-Page" stroke="none" stroke-width="1" fill="none" fill-rule="evenodd" transform="translate(-95.000000, -2054.000000)">
        <g id="Elegant-Dashboard" transform="translate(29.000000, 2054.000000)">
            <g id="Dashboard-Icon" transform="translate(66.000000, 0.000000)">
                <g id="Rectangle-9">
                    <use fill="#FFFFFF" fill-rule="evenodd" xlink:href="#path-1"></use>
                    <rect stroke="#343232" stroke-width="1" x="0.5" y="0.5" width="129" height="96"></rect>
                </g>
                <path d="M0.5,53.5 L26.5,53.5" id="Line-5" stroke="#343232" stroke-linecap="square"></path>
                <rect id="Rectangle-8" stroke="#343232" x="109.5" y="12.5" width="16" height="9"></rect>
                <rect id="Rectangle-8-Copy" stroke="#343232" x="109.5" y="30" width="16" height="9"></rect>
                <rect id="Rectangle-8-Copy-2" stroke="#343232" x="109.5" y="47.5" width="16" height="9"></rect>
                <g id="Group" transform="translate(39.000000, 30.000000)">
                    <g id="Rectangle-7">
                        <use fill="#343232" fill-rule="evenodd" xlink:href="#path-2"></use>
                        <rect stroke="#343232" stroke-width="1" x="0.5" y="0.5" width="54" height="1"></rect>
                    </g>
                    <g id="Rectangle-7-Copy">
                        <use fill="#D8D8D8" fill-rule="evenodd" xlink:href="#path-3"></use>
                        <rect stroke="#343232" stroke-width="1" x="0.5" y="4.5" width="39" height="1"></rect>
                    </g>
                    <g id="Rectangle-7-Copy-2">
                        <use fill="#D8D8D8" fill-rule="evenodd" xlink:href="#path-4"></use>
                        <rect stroke="#343232" stroke-width="1" x="0.5" y="8.5" width="32" height="1"></rect>
                    </g>
                </g>
                <g id="Group-Copy-3" transform="translate(5.000000, 24.000000)">
                    <g id="Rectangle-7">
                        <use fill="#343232" fill-rule="evenodd" xlink:href="#path-5"></use>
                        <rect stroke="#343232" stroke-width="1" x="0.5" y="0.5" width="16" height="1"></rect>
                    </g>
                    <g id="Rectangle-7-Copy">
                        <use fill="#D8D8D8" fill-rule="evenodd" xlink:href="#path-6"></use>
                        <rect stroke="#343232" stroke-width="1" x="3.5" y="4.5" width="11" height="1"></rect>
                    </g>
                    <g id="Rectangle-7-Copy-2">
                        <use fill="#D8D8D8" fill-rule="evenodd" xlink:href="#path-7"></use>
                        <rect stroke="#343232" stroke-width="1" x="4.5" y="8.5" width="9" height="1"></rect>
                    </g>
                </g>
                <g id="Group-Copy" transform="translate(38.000000, 50.000000)">
                    <g id="Rectangle-7">
                        <use fill="#343232" fill-rule="evenodd" xlink:href="#path-8"></use>
                        <rect stroke="#343232" stroke-width="1" x="0.5" y="0.5" width="54" height="1"></rect>
                    </g>
                    <g id="Rectangle-7-Copy">
                        <use fill="#D8D8D8" fill-rule="evenodd" xlink:href="#path-9"></use>
                        <rect stroke="#343232" stroke-width="1" x="0.5" y="4.5" width="39" height="1"></rect>
                    </g>
                    <g id="Rectangle-7-Copy-2">
                        <use fill="#D8D8D8" fill-rule="evenodd" xlink:href="#path-10"></use>
                        <rect stroke="#343232" stroke-width="1" x="0.5" y="8.5" width="32" height="1"></rect>
                    </g>
                </g>
                <g id="Group-Copy-2" transform="translate(38.000000, 73.000000)">
                    <g id="Rectangle-7">
                        <use fill="#343232" fill-rule="evenodd" xlink:href="#path-11"></use>
                        <rect stroke="#343232" stroke-width="1" x="0.5" y="0.5" width="54" height="1"></rect>
                    </g>
                    <g id="Rectangle-7-Copy">
                        <use fill="#D8D8D8" fill-rule="evenodd" xlink:href="#path-12"></use>
                        <rect stroke="#343232" stroke-width="1" x="0.5" y="4.5" width="39" height="1"></rect>
                    </g>
                    <g id="Rectangle-7-Copy-2">
                        <use fill="#D8D8D8" fill-rule="evenodd" xlink:href="#path-13"></use>
                        <rect stroke="#343232" stroke-width="1" x="0.5" y="8.5" width="32" height="1"></rect>
                    </g>
                </g>
                <rect id="Rectangle-3" stroke="#343232" x="33.5" y="27.5" width="66" height="15"></rect>
                <rect id="Rectangle-3-Copy" stroke="#343232" x="33.5" y="47.5" width="66" height="15"></rect>
                <rect id="Rectangle-3-Copy-2" stroke="#343232" x="33.5" y="70.5" width="66" height="15"></rect>
                <path d="M26.5,0.5 L26.5,95.5" id="Line-2" stroke="#343232" stroke-linecap="square"></path>
                <path d="M105.5,0.5 L105.5,95.5" id="Line-2-Copy" stroke="#343232" stroke-linecap="square"></path>
                <circle id="Oval-7" stroke="#343232" cx="13.5" cy="11.5" r="5.5"></circle>
                <path d="M26.5,13.5 L105.5,13.5" id="Line-3" stroke="#343232" stroke-linecap="square"></path>
                <path d="M105.5,66.5 L129.5,66.5" id="Line-4" stroke="#343232" stroke-linecap="square"></path>
                <circle id="Oval-8" stroke="#343232" cx="118" cy="75" r="2"></circle>
                <circle id="Oval-8-Copy" stroke="#343232" cx="118" cy="81" r="2"></circle>
                <circle id="Oval-8-Copy-2" stroke="#343232" cx="118" cy="88" r="2"></circle>
                <rect id="Rectangle-10" stroke="#343232" x="9.5" y="62.5" width="8" height="8"></rect>
                <rect id="Rectangle-10-Copy" stroke="#343232" x="9.5" y="77.5" width="8" height="8"></rect>
                <rect id="Rectangle-11" stroke="#343232" x="5.5" y="42.5" width="17" height="5"></rect>
                <circle id="Oval-9" fill="#343232" cx="90" cy="7" r="1"></circle>
                <circle id="Oval-9-Copy" fill="#343232" cx="94" cy="7" r="1"></circle>
                <circle id="Oval-9-Copy-2" fill="#343232" cx="98" cy="7" r="1"></circle>
            </g>
        </g>
    </g>
</svg>