<?xml version="1.0" encoding="UTF-8"?>
<svg width="25px" height="23px" viewBox="0 0 25 23" version="1.1" xmlns="http://www.w3.org/2000/svg" xmlns:xlink="http://www.w3.org/1999/xlink">
    <!-- Generator: Sketch 48.2 (47327) - http://www.bohemiancoding.com/sketch -->
    <title>Google__G__Logo</title>
    <desc>Created with Sketch.</desc>
    <defs>
        <path d="M23.4297819,9.40909091 L12.1283577,9.40909091 L12.1283577,13.8522727 L18.6335677,13.8522727 C18.0271498,16.675 15.4912205,18.2954545 12.1283577,18.2954545 C8.15907698,18.2954545 4.96160087,15.2636364 4.96160087,11.5 C4.96160087,7.73636364 8.15907698,4.70454545 12.1283577,4.70454545 C13.8373535,4.70454545 15.3809627,5.27954545 16.5937984,6.22045455 L20.122048,2.875 C17.9720209,1.09772727 15.215576,0 12.1283577,0 C5.40263205,0 0,5.12272727 0,11.5 C0,17.8772727 5.40263205,23 12.1283577,23 C18.1925365,23 23.7054264,18.8181818 23.7054264,11.5 C23.7054264,10.8204545 23.5951686,10.0886364 23.4297819,9.40909091 Z" id="path-1"></path>
        <path d="M23.4297819,9.40909091 L12.1283577,9.40909091 L12.1283577,13.8522727 L18.6335677,13.8522727 C18.0271498,16.675 15.4912205,18.2954545 12.1283577,18.2954545 C8.15907698,18.2954545 4.96160087,15.2636364 4.96160087,11.5 C4.96160087,7.73636364 8.15907698,4.70454545 12.1283577,4.70454545 C13.8373535,4.70454545 15.3809627,5.27954545 16.5937984,6.22045455 L20.122048,2.875 C17.9720209,1.09772727 15.215576,0 12.1283577,0 C5.40263205,0 0,5.12272727 0,11.5 C0,17.8772727 5.40263205,23 12.1283577,23 C18.1925365,23 23.7054264,18.8181818 23.7054264,11.5 C23.7054264,10.8204545 23.5951686,10.0886364 23.4297819,9.40909091 Z" id="path-3"></path>
        <path d="M23.4297819,9.40909091 L12.1283577,9.40909091 L12.1283577,13.8522727 L18.6335677,13.8522727 C18.0271498,16.675 15.4912205,18.2954545 12.1283577,18.2954545 C8.15907698,18.2954545 4.96160087,15.2636364 4.96160087,11.5 C4.96160087,7.73636364 8.15907698,4.70454545 12.1283577,4.70454545 C13.8373535,4.70454545 15.3809627,5.27954545 16.5937984,6.22045455 L20.122048,2.875 C17.9720209,1.09772727 15.215576,0 12.1283577,0 C5.40263205,0 0,5.12272727 0,11.5 C0,17.8772727 5.40263205,23 12.1283577,23 C18.1925365,23 23.7054264,18.8181818 23.7054264,11.5 C23.7054264,10.8204545 23.5951686,10.0886364 23.4297819,9.40909091 Z" id="path-5"></path>
        <path d="M23.4297819,9.40909091 L12.1283577,9.40909091 L12.1283577,13.8522727 L18.6335677,13.8522727 C18.0271498,16.675 15.4912205,18.2954545 12.1283577,18.2954545 C8.15907698,18.2954545 4.96160087,15.2636364 4.96160087,11.5 C4.96160087,7.73636364 8.15907698,4.70454545 12.1283577,4.70454545 C13.8373535,4.70454545 15.3809627,5.27954545 16.5937984,6.22045455 L20.122048,2.875 C17.9720209,1.09772727 15.215576,0 12.1283577,0 C5.40263205,0 0,5.12272727 0,11.5 C0,17.8772727 5.40263205,23 12.1283577,23 C18.1925365,23 23.7054264,18.8181818 23.7054264,11.5 C23.7054264,10.8204545 23.5951686,10.0886364 23.4297819,9.40909091 Z" id="path-7"></path>
    </defs>
    <g id="Sign-In-Desktop" stroke="none" stroke-width="1" fill="none" fill-rule="evenodd" transform="translate(-354.000000, -446.000000)">
        <g id="Group-5" transform="translate(231.000000, 256.000000)">
            <g id="Group" transform="translate(103.000000, 119.000000)">
                <g id="Connection">
                    <g id="Sign-Up-Button" transform="translate(0.000000, 55.000000)">
                        <g id="Google__G__Logo" transform="translate(20.472868, 16.000000)">
                            <g id="Clipped">
                                <mask id="mask-2" fill="white">
                                    <use xlink:href="#path-1"></use>
                                </mask>
                                <g id="a"></g>
                                <polygon id="Shape" fill="#FBBC05" fill-rule="nonzero" mask="url(#mask-2)" points="-1.10257797 18.2954545 -1.10257797 4.70454545 8.26933478 11.5"></polygon>
                            </g>
                            <g id="Clipped">
                                <mask id="mask-4" fill="white">
                                    <use xlink:href="#path-3"></use>
                                </mask>
                                <g id="a"></g>
                                <polygon id="Shape" fill="#EA4335" fill-rule="nonzero" mask="url(#mask-4)" points="-1.10257797 4.70454545 8.26933478 11.5 12.1283577 8.31136364 25.3592933 6.27272727 25.3592933 -1.04545455 -1.10257797 -1.04545455"></polygon>
                            </g>
                            <g id="Clipped">
                                <mask id="mask-6" fill="white">
                                    <use xlink:href="#path-5"></use>
                                </mask>
                                <g id="a"></g>
                                <polygon id="Shape" fill="#34A853" fill-rule="nonzero" mask="url(#mask-6)" points="-1.10257797 18.2954545 15.4360916 6.27272727 19.7912746 6.79545455 25.3592933 -1.04545455 25.3592933 24.0454545 -1.10257797 24.0454545"></polygon>
                            </g>
                            <g id="Clipped">
                                <mask id="mask-8" fill="white">
                                    <use xlink:href="#path-7"></use>
                                </mask>
                                <g id="a"></g>
                                <polygon id="Shape" fill="#4285F4" fill-rule="nonzero" mask="url(#mask-8)" points="25.3592933 24.0454545 8.26933478 11.5 6.06417884 9.93181818 25.3592933 4.70454545"></polygon>
                            </g>
                        </g>
                    </g>
                </g>
            </g>
        </g>
    </g>
</svg>