<?xml version="1.0" encoding="UTF-8"?>
<svg width="73px" height="83px" viewBox="0 0 73 83" version="1.1" xmlns="http://www.w3.org/2000/svg" xmlns:xlink="http://www.w3.org/1999/xlink">
    <!-- Generator: Sketch 48.2 (47327) - http://www.bohemiancoding.com/sketch -->
    <title>Search Icon</title>
    <desc>Created with Sketch.</desc>
    <defs></defs>
    <g id="Mobile-Home-Page" stroke="none" stroke-width="1" fill="none" fill-rule="evenodd" transform="translate(-124.000000, -764.000000)">
        <g id="Powerful-Search" transform="translate(29.000000, 766.000000)" stroke="#343232">
            <g id="Search-Icon" transform="translate(97.000000, 0.000000)">
                <path d="M39.7625068,42.0986232 C43.2929484,43.7022896 49.7865895,49.5972988 56.3213026,57.3850666 C64.8413457,67.5388586 70.2048412,77.0651694 68.3010053,78.6626775 C66.3971693,80.2601856 57.9469457,73.323947 49.4269026,63.1701551 C42.7944179,55.2658676 38.0747847,47.7418304 37.2072275,44.0423746 C33.4188222,46.5438416 28.8794631,48 24,48 C10.745166,48 0,37.254834 0,24 C0,10.745166 10.745166,0 24,0 C37.254834,0 48,10.745166 48,24 C48,31.2219272 44.8101463,37.6988242 39.7625068,42.0986232 Z" id="Combined-Shape" stroke-width="4"></path>
                <path d="M10,35 C12.3333333,39.3333333 16,41.5 21,41.5" id="Path-2" stroke-width="3"></path>
                <path d="M6.37171809,28.1828777 C7.62812835,30.516211 8.46146168,32.016211 8.87171809,32.6828777" id="Path-2-Copy" stroke-width="3" transform="translate(7.621718, 30.432878) rotate(10.000000) translate(-7.621718, -30.432878) "></path>
            </g>
        </g>
    </g>
</svg>