<?xml version="1.0" encoding="UTF-8"?>
<svg width="188px" height="120px" viewBox="0 0 188 120" version="1.1" xmlns="http://www.w3.org/2000/svg" xmlns:xlink="http://www.w3.org/1999/xlink">
    <!-- Generator: Sketch 48.2 (47327) - http://www.bohemiancoding.com/sketch -->
    <title>Shared Bible Icon</title>
    <desc>Created with Sketch.</desc>
    <defs></defs>
    <g id="Mobile-Home-Page" stroke="none" stroke-width="1" fill="none" fill-rule="evenodd" transform="translate(-66.000000, -1398.000000)">
        <g id="Shared-Bible" transform="translate(29.000000, 1399.000000)">
            <g id="Shared-Bible-Icon" transform="translate(39.000000, 0.000000)">
                <polyline id="Shape" stroke="#231F20" stroke-width="3.3" stroke-linejoin="round" points="154 82 153.974007 104 29 104 29 87.15006"></polyline>
                <path d="M91,103 C67.0002099,84.7702059 48.4262329,95.6272671 29,103" id="Shape" stroke="#231F20" stroke-width="5"></path>
                <path d="M148,34 L148.1,102" id="Shape" stroke="#231F20" stroke-width="5"></path>
                <path d="M154,103 C134.457303,95.6272671 115.137129,84.7702059 91,103" id="Shape" stroke="#231F20" stroke-width="5"></path>
                <path d="M154.03,56 L154,68" id="Shape" stroke="#231F20" stroke-width="5"></path>
                <path d="M150,43 L154.655814,43 C155.950472,43 157,44.0674006 157,45.384106 L157,54.615894 C157,55.9325994 155.950472,57 154.655814,57 L150,57" id="Shape" stroke="#231F20" fill="#231F20" fill-rule="nonzero"></path>
                <path d="M150,68 L154.655814,68 C155.950472,68 157,69.0643797 157,70.3773585 L157,79.6226415 C157,80.9356203 155.950472,82 154.655814,82 L150,82" id="Shape" stroke="#231F20" fill="#231F20" fill-rule="nonzero"></path>
                <path d="M29,58 L29,94" id="Shape" stroke="#231F20" stroke-width="3.3" stroke-linejoin="round"></path>
                <path d="M155.399902,36.4630682 L155.399902,42.874621 L152.158253,42.874621 L152.158253,37.5868763 C150.543912,36.9762522 148.916605,36.3396442 147.341164,35.7225241 C130.056694,28.9601872 113.699336,22.5681223 93.6529826,36.5799962 C93.114869,36.9567642 92.5702721,37.3465243 92.0256751,37.7557723 C91.4465914,38.1803679 90.6597698,38.1803679 90.0806861,37.7557723 C89.5360892,37.3530203 88.9979755,36.9632602 88.4598619,36.5864922 C80.679974,31.1388008 73.5082789,28.7858268 66.6494663,28.3362177 C55.9895745,27.6374401 46.0854514,31.5362474 35.8284583,35.5601241 C34.1363179,36.2097241 32.3987943,36.9112922 30.6418209,37.5673883 L30.6418209,65 L27.4000015,65 L27.4001725,36.4565722 C27.3902445,35.7690291 27.8135486,35.149742 28.4569499,34.910524 C30.512155,34.1699799 32.5868099,33.3449878 34.6225651,32.5524757 C51.044756,26.0564748 67.9985771,19.4175619 88.4663452,32.6823957 C89.3307848,33.2367211 90.1952243,33.8256918 91.0596639,34.4493079 C91.934909,33.7997078 92.7971875,33.2280597 93.6529826,32.6758997 C114.27635,19.3201219 131.677518,26.1084428 148.521124,32.6888917 C150.466113,33.4424278 152.411102,34.2154519 154.356091,34.936508 C154.990088,35.1744299 155.407423,35.7847764 155.399902,36.4630682 Z" id="Shape" fill="#231F20" fill-rule="nonzero"></path>
                <path d="M92.9999107,118.652392 L92.9999107,34 C92.1686904,34.6079928 91.3374701,35.2442643 90.5,35.9370933 C89.6666964,35.2584037 88.8333929,34.6150625 88.0000893,34.0070697 L88.0000893,118.652392 C87.9970643,118.793097 88.0711365,118.92131 88.1862739,118.974662 C88.3014113,119.028014 88.4337127,118.995431 88.5188208,118.892762 L90.5,116.651672 L92.4811792,118.892762 C92.5662873,118.995431 92.6985887,119.028014 92.8137261,118.974662 C92.9288635,118.92131 93.0029357,118.793097 92.9999107,118.652392 Z" id="Shape" fill="#231F20" fill-rule="nonzero"></path>
                <g id="Text-LS" transform="translate(36.000000, 46.000000)" stroke="#343232" stroke-width="2">
                    <path d="M0,7 C0,7 3.08810655,5.51151414 9.50001532,3.5 C13.8215691,2.14426228 19.4103477,7.03599274e-13 27.5000153,0 C32.7304386,-4.54765855e-13 39.3971053,2 47.5000153,6" id="Path-3"></path>
                    <path d="M0,17 C0,17 3.08810655,15.5115141 9.50001532,13.5 C13.8215691,12.1442623 19.4103477,10 27.5000153,10 C32.7304386,10 39.3971053,12 47.5000153,16" id="Path-3-Copy"></path>
                    <path d="M0,26 C0,26 3.08810655,24.5115141 9.50001532,22.5 C13.8215691,21.1442623 19.4103477,19 27.5000153,19 C32.7304386,19 39.3971053,21 47.5000153,25" id="Path-3-Copy-2"></path>
                    <path d="M0,36 C0,36 3.08810655,34.5115141 9.50001532,32.5 C13.8215691,31.1442623 19.4103477,29 27.5000153,29 C32.7304386,29 39.3971053,31 47.5000153,35" id="Path-3-Copy-3"></path>
                </g>
                <g id="Text-RS" transform="translate(96.000000, 46.000000)" stroke="#343232" stroke-width="2">
                    <path d="M0,7 C0,7 3.08810655,5.51151414 9.50001532,3.5 C13.8215691,2.14426228 19.4103477,7.03599274e-13 27.5000153,0 C32.7304386,-4.54765855e-13 39.3971053,2 47.5000153,6" id="Path-3-Copy-4" transform="translate(23.750008, 3.500000) scale(-1, 1) translate(-23.750008, -3.500000) "></path>
                    <path d="M0,17 C0,17 3.08810655,15.5115141 9.50001532,13.5 C13.8215691,12.1442623 19.4103477,10 27.5000153,10 C32.7304386,10 39.3971053,12 47.5000153,16" id="Path-3-Copy-5" transform="translate(23.750008, 13.500000) scale(-1, 1) translate(-23.750008, -13.500000) "></path>
                    <path d="M0,27 C0,27 3.08810655,25.5115141 9.50001532,23.5 C13.8215691,22.1442623 19.4103477,20 27.5000153,20 C32.7304386,20 39.3971053,22 47.5000153,26" id="Path-3-Copy-6" transform="translate(23.750008, 23.500000) scale(-1, 1) translate(-23.750008, -23.500000) "></path>
                    <path d="M0,36 C0,36 3.08810655,34.5115141 9.50001532,32.5 C13.8215691,31.1442623 19.4103477,29 27.5000153,29 C32.7304386,29 39.3971053,31 47.5000153,35" id="Path-3-Copy-7" transform="translate(23.750008, 32.500000) scale(-1, 1) translate(-23.750008, -32.500000) "></path>
                </g>
                <path d="M165,51 C165.260006,45.9857176 169.40808,42 174.487068,42 C179.566056,42 183.714129,45.9857176 183.974136,51 L165,51 Z M174.487068,42 C171.449502,42 168.987068,39.5375661 168.987068,36.5 C168.987068,33.4624339 171.449502,31 174.487068,31 C177.524634,31 179.987068,33.4624339 179.987068,36.5 C179.987068,39.5375661 177.524634,42 174.487068,42 Z" id="Combined-Shape-Copy" stroke="#343232" stroke-width="2"></path>
                <path d="M-1.36262529e-14,51 C0.26000646,45.9857176 4.40808008,42 9.48706794,42 C14.5660558,42 18.7141294,45.9857176 18.9741359,51 L-1.36245182e-14,51 Z M9.48706794,42 C6.44950182,42 3.98706794,39.5375661 3.98706794,36.5 C3.98706794,33.4624339 6.44950182,31 9.48706794,31 C12.5246341,31 14.9870679,33.4624339 14.9870679,36.5 C14.9870679,39.5375661 12.5246341,42 9.48706794,42 Z" id="Combined-Shape-Copy-4" stroke="#343232" stroke-width="2"></path>
                <path d="M43,20 C43.2600065,14.9857176 47.4080801,11 52.4870679,11 C57.5660558,11 61.7141294,14.9857176 61.9741359,20 L43,20 Z M52.4870679,11 C49.4495018,11 46.9870679,8.53756612 46.9870679,5.5 C46.9870679,2.46243388 49.4495018,0 52.4870679,0 C55.5246341,0 57.9870679,2.46243388 57.9870679,5.5 C57.9870679,8.53756612 55.5246341,11 52.4870679,11 Z" id="Combined-Shape-Copy-7" stroke="#343232" stroke-width="2"></path>
                <path d="M80,20 C80.2600065,14.9857176 84.4080801,11 89.4870679,11 C94.5660558,11 98.7141294,14.9857176 98.9741359,20 L80,20 Z M89.4870679,11 C86.4495018,11 83.9870679,8.53756612 83.9870679,5.5 C83.9870679,2.46243388 86.4495018,0 89.4870679,0 C92.5246341,0 94.9870679,2.46243388 94.9870679,5.5 C94.9870679,8.53756612 92.5246341,11 89.4870679,11 Z" id="Combined-Shape-Copy-8" stroke="#343232" stroke-width="2"></path>
                <path d="M117,20 C117.260006,14.9857176 121.40808,11 126.487068,11 C131.566056,11 135.714129,14.9857176 135.974136,20 L117,20 Z M126.487068,11 C123.449502,11 120.987068,8.53756612 120.987068,5.5 C120.987068,2.46243388 123.449502,0 126.487068,0 C129.524634,0 131.987068,2.46243388 131.987068,5.5 C131.987068,8.53756612 129.524634,11 126.487068,11 Z" id="Combined-Shape-Copy-9" stroke="#343232" stroke-width="2"></path>
                <path d="M165,78 C165.260006,72.9857176 169.40808,69 174.487068,69 C179.566056,69 183.714129,72.9857176 183.974136,78 L165,78 Z M174.487068,69 C171.449502,69 168.987068,66.5375661 168.987068,63.5 C168.987068,60.4624339 171.449502,58 174.487068,58 C177.524634,58 179.987068,60.4624339 179.987068,63.5 C179.987068,66.5375661 177.524634,69 174.487068,69 Z" id="Combined-Shape-Copy-2" stroke="#343232" stroke-width="2"></path>
                <path d="M0.0258641173,78 C0.285870578,72.9857176 4.4339442,69 9.51293206,69 C14.5919199,69 18.7399935,72.9857176 19,78 L0.0258641173,78 Z M9.51293206,69 C6.47536593,69 4.01293206,66.5375661 4.01293206,63.5 C4.01293206,60.4624339 6.47536593,58 9.51293206,58 C12.5504982,58 15.0129321,60.4624339 15.0129321,63.5 C15.0129321,66.5375661 12.5504982,69 9.51293206,69 Z" id="Combined-Shape-Copy-5" stroke="#343232" stroke-width="2"></path>
                <path d="M165,105 C165.260006,99.9857176 169.40808,96 174.487068,96 C179.566056,96 183.714129,99.9857176 183.974136,105 L165,105 Z M174.487068,96 C171.449502,96 168.987068,93.5375661 168.987068,90.5 C168.987068,87.4624339 171.449502,85 174.487068,85 C177.524634,85 179.987068,87.4624339 179.987068,90.5 C179.987068,93.5375661 177.524634,96 174.487068,96 Z" id="Combined-Shape-Copy-3" stroke="#343232" stroke-width="2"></path>
                <path d="M0.0258641173,105 C0.285870578,99.9857176 4.4339442,96 9.51293206,96 C14.5919199,96 18.7399935,99.9857176 19,105 L0.0258641173,105 Z M9.51293206,96 C6.47536593,96 4.01293206,93.5375661 4.01293206,90.5 C4.01293206,87.4624339 6.47536593,85 9.51293206,85 C12.5504982,85 15.0129321,87.4624339 15.0129321,90.5 C15.0129321,93.5375661 12.5504982,96 9.51293206,96 Z" id="Combined-Shape-Copy-6" stroke="#343232" stroke-width="2"></path>
            </g>
        </g>
    </g>
</svg>