<?xml version="1.0" encoding="UTF-8"?>
<svg width="25px" height="18px" viewBox="0 0 25 18" version="1.1" xmlns="http://www.w3.org/2000/svg" xmlns:xlink="http://www.w3.org/1999/xlink">
    <!-- Generator: Sketch 48.2 (47327) - http://www.bohemiancoding.com/sketch -->
    <title>Shape</title>
    <desc>Created with Sketch.</desc>
    <defs></defs>
    <g id="Sign-In-Desktop" stroke="none" stroke-width="1" fill="none" fill-rule="evenodd" transform="translate(-354.000000, -612.000000)">
        <g id="Group-5" transform="translate(231.000000, 256.000000)" fill="#FFFFFF" fill-rule="nonzero">
            <g id="Group" transform="translate(103.000000, 119.000000)">
                <g id="Connection">
                    <g id="Sign-Up-Button" transform="translate(0.000000, 219.000000)">
                        <path d="M44.1782946,20.0956931 C43.3064121,20.4537268 42.3702316,20.6924162 41.3826127,20.8046004 C42.3856635,20.250841 43.1598125,19.36769 43.5224537,18.3246176 C42.5811297,18.8377999 41.5395005,19.2125421 40.4335728,19.4106544 C39.5488308,18.5394383 38.2860158,18 36.8868889,18 C34.2017999,18 32.0233805,20.0026041 32.0233805,22.4730393 C32.0233805,22.8215255 32.0671031,23.1628514 32.1494047,23.4922425 C28.1089114,23.3060651 24.5236492,21.5230552 22.1266157,18.816318 C21.7048201,19.4774874 21.4682031,20.250841 21.4682031,21.0695457 C21.4682031,22.6210264 22.3246537,23.9887164 23.6311913,24.7931001 C22.8338944,24.7716176 22.0828925,24.5639583 21.4270523,24.2345666 C21.4270523,24.2488883 21.4270523,24.2679834 21.4270523,24.2870786 C21.4270523,26.4567649 23.103947,28.2636433 25.3260896,28.6765758 C24.9197252,28.7792124 24.4902137,28.8364979 24.0478427,28.8364979 C23.7340683,28.8364979 23.4280091,28.8030816 23.1322376,28.7529564 C23.7494995,30.5264187 25.544703,31.8225021 27.6742563,31.8606924 C26.0076494,33.0589128 23.9115309,33.7773683 21.6328063,33.7773683 C21.2393013,33.7773683 20.853513,33.7558858 20.4728682,33.712922 C22.6281405,34.9779754 25.1846336,35.7202996 27.928877,35.7202996 C36.8740295,35.7202996 41.7684016,28.9033309 41.7684016,22.9886083 C41.7684016,22.7952695 41.7606857,22.6019312 41.750398,22.4133665 C42.7045821,21.7856139 43.5275979,20.9979386 44.1782946,20.0956931" id="Shape"></path>
                    </g>
                </g>
            </g>
        </g>
    </g>
</svg>